<svg width="89" height="60" viewBox="0 0 89 60" fill="none" xmlns="http://www.w3.org/2000/svg">
<path fill-rule="evenodd" clip-rule="evenodd" d="M59.6071 16.5351H65.9943V23.35H70.9687V5.41654H65.9943V12.1289H59.6071V5.41654H54.6327V23.35H59.6071V16.5351ZM79.0744 19.1228V16.2792H87.6929V12.3586H79.0744V9.64067H88.5904V5.41654H74.1492V23.35H88.7186V19.1228H79.0744ZM64.1994 32.0849C64.24 31.3049 64.1199 30.5249 63.8464 29.7933C63.5729 29.0617 63.152 28.3942 62.6097 27.8321C61.404 26.628 59.5061 25.9105 56.7635 25.9105H48.2706V48.1456L38.8859 25.7823H34.9941C37.3754 23.956 39.1248 21.4297 39.9969 18.5581C40.8689 15.6866 40.8197 12.6141 39.8562 9.77196H42.0911V23.35H47.0654V9.77196H52.4501V5.41654H37.47C36.1206 3.72665 34.4081 2.36226 32.4595 1.42458C30.5108 0.4869 28.376 0 26.2135 0C24.051 0 21.9162 0.4869 19.9676 1.42458C18.0189 2.36226 16.3064 3.72665 14.957 5.41654H0V9.77196H5.38465V23.35H10.359V9.77196H12.5683C11.5071 12.9028 11.5578 16.3037 12.7119 19.4015C13.8659 22.4992 16.0528 25.1044 18.9037 26.7777L15.1555 32.8531L10.8719 25.9105H5.61748V43.846H10.4893V33.5962L15.0534 40.5645H15.156L19.7473 33.5449V43.846H24.6981V28.688C25.2003 28.7407 25.705 28.7672 26.2099 28.7675C28.8565 28.7719 31.4528 28.0442 33.7115 26.6649L26.4402 43.8445H31.671L32.953 40.6424H39.8762L47.9116 60H53.245V38.4101H55.4255L59.0419 43.8409H64.7856L60.502 37.5901C61.618 37.1766 62.5757 36.4224 63.2393 35.4343C63.9029 34.4463 64.2388 33.2745 64.1994 32.0849ZM13.6201 17.0028C20.9427 18.6033 25.7771 16.3238 29.3356 14.6366C31.5566 13.5828 33.3115 12.7525 34.8028 13.3079C36.0946 13.7894 37.2803 15.3156 38.5259 18.0966C38.3494 18.6784 38.1315 19.2469 37.8741 19.7977C35.2792 15.8438 32.9038 16.9982 29.6838 18.5669C26.4638 20.1356 22.0909 22.2561 14.9745 20.6238C14.3416 19.4927 13.8849 18.2716 13.6201 17.0028ZM38.8572 12.0376C33.4628 6.94629 30.9371 7.9663 27.4161 10.015C24.6032 11.6504 21.1196 13.6751 13.8119 10.9807C14.09 9.9704 14.4917 8.99827 15.0078 8.0863C18.3468 8.32066 21.4278 7.76476 24.4115 7.2145C29.3069 6.31244 33.5572 5.54013 37.6736 8.56118C38.234 9.65672 38.6327 10.8277 38.8572 12.0376ZM27.934 10.9002C31.132 9.04118 33.2623 7.80733 39.0562 13.6663C39.0695 13.9038 39.0772 14.1422 39.0772 14.3843C39.0766 15.0919 39.0176 15.7982 38.9008 16.4961C37.7131 14.1617 36.5331 12.8592 35.1628 12.3484C33.2654 11.6417 31.3366 12.5535 28.8976 13.7115C25.4104 15.3653 20.6514 17.6125 13.4468 15.9166C13.2853 14.6085 13.3301 13.2831 13.5796 11.9889C21.2535 14.7848 24.9458 12.6371 27.9325 10.9007L27.934 10.9002ZM29.3612 1.92575C29.3612 1.92575 29.3571 1.9319 29.3551 1.93395C28.8705 2.4919 27.2402 2.60524 25.5145 2.72524L24.2699 2.81601C22.8191 2.92729 21.4427 3.02781 20.635 2.80832C23.3504 1.50219 26.4379 1.19005 29.3597 1.92626L29.3612 1.92575ZM19.5335 3.40883C20.0878 3.8355 20.9104 3.96781 21.9386 3.96781C22.652 3.96781 23.4632 3.90576 24.3489 3.83807L25.5863 3.74781C27.6987 3.60063 29.3674 3.48473 30.1305 2.60524C30.2269 2.49076 30.3071 2.36359 30.3689 2.22729C32.7856 3.05586 34.9021 4.58288 36.4505 6.61501C32.5382 4.68218 28.4797 5.42064 24.2253 6.20475C21.4714 6.71245 18.6355 7.23348 15.6227 7.10117C16.6532 5.61068 17.985 4.35299 19.5319 3.40935L19.5335 3.40883ZM15.7519 21.8423C17.1275 22.1094 18.5251 22.2468 19.9263 22.2526C24.4684 22.2526 27.6381 20.7069 30.1356 19.4889C33.409 17.893 35.0833 17.0879 37.3213 20.8525C36.2371 22.7027 34.7106 24.2548 32.8787 25.3695C29.2479 22.549 27.1325 23.251 23.3571 24.5203C22.3684 24.8526 21.2489 25.2259 19.9463 25.5972C18.2892 24.6684 16.8567 23.3865 15.7504 21.8423H15.7519ZM21.315 26.2593C22.1837 25.9926 22.9699 25.7305 23.6848 25.49C27.313 24.27 28.9351 23.7285 31.8951 25.9049C30.2578 26.7125 28.4671 27.1618 26.6425 27.2229C24.8179 27.284 23.0012 26.9555 21.3135 26.2593H21.315ZM34.4218 36.7721L36.4485 31.6742L38.4485 36.7721H34.4213H34.4218ZM56.5317 34.5157H53.2496V30.2121H56.5076C58.1748 30.2121 59.2004 30.9301 59.2004 32.3383C59.1973 33.6988 58.2225 34.5183 56.5301 34.5183L56.5317 34.5157ZM74.3318 32.6696C71.8436 32.1054 71.2277 31.7465 71.2277 30.926C71.2277 30.2341 71.8179 29.7218 73.0226 29.7218C74.8376 29.7914 76.5893 30.4075 78.0482 31.4895L80.5365 27.9803C78.5877 26.4172 76.2016 25.5972 73.1492 25.5972C68.8415 25.5972 66.1984 28.0075 66.1984 31.3362C66.1984 35.0762 69.1477 36.1527 72.9677 37.0234C75.4041 37.5875 75.9933 37.9978 75.9933 38.7398C75.9933 39.5604 75.2754 40.0219 73.9421 40.0219C71.8111 39.9959 69.7544 39.2351 68.1194 37.868L65.3502 41.1732C67.6958 43.1609 70.6894 44.2184 73.7631 44.145C78.1221 44.145 81.0221 41.9676 81.0221 38.304C81.0262 34.9029 78.4621 33.5706 74.3303 32.6742L74.3318 32.6696Z" fill="white"/>
</svg>
